<?xml version="1.0" encoding="UTF-8" standalone="no"?>
<!-- Created with Inkscape (http://www.inkscape.org/) -->

<svg
   xmlns:dc="http://purl.org/dc/elements/1.1/"
   xmlns:cc="http://creativecommons.org/ns#"
   xmlns:rdf="http://www.w3.org/1999/02/22-rdf-syntax-ns#"
   xmlns:svg="http://www.w3.org/2000/svg"
   xmlns="http://www.w3.org/2000/svg"
   xmlns:sodipodi="http://sodipodi.sourceforge.net/DTD/sodipodi-0.dtd"
   xmlns:inkscape="http://www.inkscape.org/namespaces/inkscape"
   width="744.09448819"
   height="1052.3622047"
   id="svg2"
   version="1.1"
   inkscape:version="0.48.4 r9939"
   sodipodi:docname="plaything.svg">
  <defs
     id="defs4" />
  <sodipodi:namedview
     id="base"
     pagecolor="#ffffff"
     bordercolor="#666666"
     borderopacity="1.0"
     inkscape:pageopacity="0.0"
     inkscape:pageshadow="2"
     inkscape:zoom="1.2049255"
     inkscape:cx="338.36341"
     inkscape:cy="588.40992"
     inkscape:document-units="px"
     inkscape:current-layer="layer1"
     showgrid="false"
     inkscape:window-width="1366"
     inkscape:window-height="732"
     inkscape:window-x="0"
     inkscape:window-y="0"
     inkscape:window-maximized="0"
     showguides="true"
     inkscape:guide-bbox="true">
    <sodipodi:guide
       orientation="0,1"
       position="164.32551,607.50644"
       id="guide3067" />
    <sodipodi:guide
       orientation="0,1"
       position="195.86273,570.15973"
       id="guide3069" />
  </sodipodi:namedview>
  <metadata
     id="metadata7">
    <rdf:RDF>
      <cc:Work
         rdf:about="">
        <dc:format>image/svg+xml</dc:format>
        <dc:type
           rdf:resource="http://purl.org/dc/dcmitype/StillImage" />
        <dc:title></dc:title>
      </cc:Work>
    </rdf:RDF>
  </metadata>
  <g
     inkscape:label="Layer 1"
     inkscape:groupmode="layer"
     id="layer1">
    <rect
       style="fill:#f9f9f9;fill-opacity:1"
       id="rect3091"
       width="375.95685"
       height="187.56346"
       x="64.734291"
       y="336.13531"
       inkscape:export-filename="/home/dbain/Downloads/alteroo/plaything/playthinglogo.png"
       inkscape:export-xdpi="83.971573"
       inkscape:export-ydpi="83.971573" />
    <g
       style="font-size:59.77380371px;font-style:normal;font-variant:normal;font-weight:normal;font-stretch:normal;line-height:125%;letter-spacing:0px;word-spacing:0px;fill:#c578c6;fill-opacity:1;stroke:none;font-family:Liberation Sans;-inkscape-font-specification:Liberation Sans"
       id="g3015"
       transform="matrix(0.49675217,0.12223328,-0.12223328,0.49675217,181.36613,185.04978)"
       inkscape:export-filename="/home/dbain/Downloads/alteroo/plaything/playthinglogo.png"
       inkscape:export-xdpi="83.971573"
       inkscape:export-ydpi="83.971573">
      <path
         style="fill:#c578c6;fill-opacity:1"
         sodipodi:nodetypes="ccccsccsssccccccc"
         d="m 238.54303,390.10892 c -4e-5,3.21053 -0.46703,6.12917 -1.40095,8.75593 -0.91455,2.62679 -2.24739,4.87414 -3.99854,6.74207 -1.75122,1.86793 -3.89156,3.30779 -6.42101,4.31959 -2.52952,1.01179 -5.39952,1.51769 -8.61,1.51769 -3.38564,0 -6.35293,-0.52535 -8.90186,-1.57606 -2.54896,-1.07017 -4.66984,-2.54895 -6.36264,-4.43634 -1.69282,-1.90684 -2.96729,-4.16392 -3.82342,-6.77125 -0.85614,-2.60731 -1.28421,-5.45785 -1.28421,-8.55163 0,-3.21048 0.44753,-6.10966 1.34258,-8.69755 0.89505,-2.58783 2.20843,-4.78654 3.94017,-6.59613 1.73172,-1.82898 3.86232,-3.22993 6.39183,-4.20285 2.54893,-0.9923 5.46757,-1.48847 8.75592,-1.48851 3.26886,4e-5 6.16804,0.49621 8.69756,1.48851 2.54891,0.99238 4.67952,2.40305 6.39183,4.23203 1.73168,1.82905 3.04507,4.03749 3.94016,6.62532 0.89501,2.58789 1.34254,5.46762 1.34258,8.63918"
         id="path3017"
         inkscape:connector-curvature="0" />
    </g>
    <g
       style="font-size:51.72014618px;font-style:normal;font-variant:normal;font-weight:normal;font-stretch:normal;text-align:start;line-height:125%;letter-spacing:0px;word-spacing:0px;writing-mode:lr-tb;text-anchor:start;fill:#c56691;fill-opacity:1;stroke:none;font-family:Titan One;-inkscape-font-specification:Titan One"
       id="text2985"
       inkscape:export-filename="/home/dbain/Downloads/alteroo/plaything/playthinglogo.png"
       inkscape:export-xdpi="83.971573"
       inkscape:export-ydpi="83.971573">
      <path
         d="m 263.16872,481.08028 c -3e-5,0.37928 -1.06891,0.6896 -3.20665,0.93096 -2.10331,0.20688 -4.22383,0.31032 -6.36158,0.31032 -2.1033,0 -3.44802,-0.0862 -4.03417,-0.2586 -0.55169,-0.20688 -0.82753,-0.53444 -0.82752,-0.98268 l 0,-22.23966 -7.1891,0 c -0.37929,2e-5 -0.70685,-0.4827 -0.98269,-1.44817 -0.27584,-0.96541 -0.41376,-2.39634 -0.41376,-4.29277 0,-1.93085 0.20688,-3.65486 0.62065,-5.17201 0.41375,-1.55157 0.96544,-2.32737 1.65504,-2.32741 l 27.9806,0 c 0.51717,4e-5 0.86197,0.48276 1.0344,1.44816 0.20685,0.96548 0.31029,2.36192 0.31032,4.18934 -3e-5,1.82747 -0.18967,3.55147 -0.56892,5.17201 -0.37931,1.62059 -0.89651,2.43087 -1.5516,2.43085 l -6.46502,0 0,22.23966"
         style="line-height:125%;letter-spacing:-1.86733794;fill:#c56691;font-family:Titan One;-inkscape-font-specification:Titan One"
         id="path3081" />
      <path
         d="m 287.38854,480.82168 c -2e-5,0.44824 -1.05166,0.81028 -3.15493,1.08612 -2.06882,0.27584 -4.1721,0.41376 -6.30986,0.41376 -2.10329,0 -3.46525,-0.12068 -4.08589,-0.36204 -0.58617,-0.24136 -0.87925,-0.62064 -0.87924,-1.13784 l 0,-31.80789 c -10e-6,-0.86197 0.99992,-1.63777 2.99976,-2.32741 1.99984,-0.72404 4.17209,-1.08608 6.51674,-1.08612 3.2756,4e-5 4.9134,0.77584 4.91342,2.32741 l 0,11.37843 4.60309,0 0,-10.29231 c -2e-5,-0.86197 0.9999,-1.63777 2.99977,-2.32741 2.0343,-0.72404 4.22378,-1.08608 6.56846,-1.08612 3.24109,4e-5 4.86166,0.77584 4.86169,2.32741 l 0,32.89401 c -3e-5,0.44824 -1.05168,0.81028 -3.15493,1.08612 -2.10331,0.27584 -4.2066,0.41376 -6.30986,0.41376 -2.10331,0 -3.46527,-0.12068 -4.08589,-0.36204 -0.58618,-0.24136 -0.87926,-0.62064 -0.87924,-1.13784 l 0,-11.84391 -4.60309,0 0,11.84391"
         style="line-height:125%;letter-spacing:-1.86733794;fill:#c56691;font-family:Titan One;-inkscape-font-specification:Titan One"
         id="path3083" />
      <path
         d="m 323.09912,481.08028 c -1e-5,0.37928 -1.05166,0.6896 -3.15493,0.93096 -2.10329,0.20688 -4.22382,0.31032 -6.36158,0.31032 -2.10329,0 -3.44801,-0.0862 -4.03417,-0.2586 -0.58616,-0.20688 -0.87924,-0.53444 -0.87924,-0.98268 l 0,-32.16993 c 0,-0.75853 0.99992,-1.49985 2.99977,-2.22397 1.99984,-0.75852 4.24104,-1.1378 6.72362,-1.13784 2.20671,4e-5 3.65487,0.46552 4.34449,1.39644 0.24135,0.34484 0.36203,0.68964 0.36204,1.03441 l 0,33.10089"
         style="line-height:125%;letter-spacing:-1.86733794;fill:#c56691;font-family:Titan One;-inkscape-font-specification:Titan One"
         id="path3085" />
      <path
         d="m 339.81871,480.82168 c -2e-5,0.44824 -1.0689,0.81028 -3.20665,1.08612 -2.1033,0.27584 -4.20658,0.41376 -6.30986,0.41376 -2.10329,0 -3.44801,-0.12068 -4.03417,-0.36204 -0.58616,-0.24136 -0.87924,-0.62064 -0.87924,-1.13784 l 0,-31.75617 c 0,-0.86197 0.98268,-1.65501 2.94805,-2.37913 1.99984,-0.72404 4.25828,-1.08608 6.77534,-1.08612 0.89647,4e-5 1.56883,0.0345 2.01708,0.10344 1.17231,0.17244 1.99983,0.91376 2.48257,2.22397 l 4.96513,13.34379 0.20689,0 0,-12.20595 c -3e-5,-0.86197 0.98266,-1.65501 2.94804,-2.37913 1.96534,-0.72404 4.20655,-1.08608 6.72362,-1.08612 2.17222,4e-5 3.55142,0.4138 4.13761,1.24128 0.41373,0.5862 0.62061,1.12064 0.62065,1.60333 l 0,32.37681 c -4e-5,0.44824 -1.06892,0.81028 -3.20665,1.08612 -2.10332,0.27584 -4.43072,0.41376 -6.98222,0.41376 -2.51707,0 -3.89628,-0.32756 -4.13761,-0.98268 l -4.80998,-12.72316 -0.2586,0 0,12.20596"
         style="line-height:125%;letter-spacing:-1.86733794;fill:#c56691;font-family:Titan One;-inkscape-font-specification:Titan One"
         id="path3087" />
      <path
         d="m 372.7267,482.73532 c -1.17233,0 -2.25846,-0.12068 -3.25837,-0.36204 -0.99993,-0.24136 -2.05157,-0.74132 -3.15493,-1.49988 -1.06889,-0.79304 -1.98261,-1.82744 -2.74116,-3.10321 -1.72401,-2.89632 -2.58601,-7.25805 -2.58601,-13.0852 0,-3.20662 0.431,-6.03399 1.293,-8.4821 0.862,-2.44806 1.94812,-4.34446 3.25837,-5.68922 1.31024,-1.37917 2.87908,-2.49977 4.70653,-3.36181 1.82744,-0.86196 3.5342,-1.41364 5.1203,-1.65504 1.58607,-0.2758 3.27559,-0.41372 5.06857,-0.41376 4.13759,4e-5 7.05115,0.36208 8.74071,1.08612 1.68949,0.68964 2.53425,2.03436 2.53428,4.03417 -3e-5,1.58612 -0.29311,3.31012 -0.87924,5.17202 -0.58619,1.82747 -1.44819,2.74119 -2.586,2.74117 -0.27587,2e-5 -1.4482,-0.25858 -3.51697,-0.77581 -2.06883,-0.55165 -3.62044,-0.82749 -4.65482,-0.82752 -2.9653,3e-5 -4.44795,2.49983 -4.44793,7.49942 -2e-5,2.51706 0.34478,4.39623 1.0344,5.6375 0.68959,1.20681 1.55159,1.87917 2.58601,2.01708 l 0,-4.65481 c -2e-5,-0.86199 0.87922,-1.65503 2.63773,-2.37913 1.75846,-0.72406 3.44798,-1.0861 5.06857,-1.08612 1.62054,2e-5 2.79286,0.10346 3.51697,0.31032 0.75853,0.2069 1.27573,0.49998 1.55161,0.87924 0.48268,0.62066 0.72404,1.17234 0.72408,1.65505 l 0,14.32648 c -4e-5,0.44824 -0.91376,0.81028 -2.74117,1.08612 -1.79299,0.27584 -3.67216,0.41376 -5.6375,0.41376 -1.9309,0 -3.15495,-0.0862 -3.67213,-0.2586 -0.51722,-0.20688 -0.8103,-0.74132 -0.87924,-1.60332 l -0.36204,-3.05149 -0.41376,0 c -0.24138,1.48265 -0.86202,2.75841 -1.86193,3.82729 -0.96546,1.06888 -2.4481,1.60332 -4.44793,1.60332"
         style="line-height:125%;letter-spacing:-1.86733794;fill:#c56691;font-family:Titan One;-inkscape-font-specification:Titan One"
         id="path3089" />
    </g>
    <g
       transform="matrix(1.4126942,0.34761425,-0.34761425,1.4126942,96.594403,-232.17092)"
       id="g3011"
       style="font-size:59.77380371px;font-style:normal;font-variant:normal;font-weight:normal;font-stretch:normal;line-height:125%;letter-spacing:0px;word-spacing:0px;opacity:0.85;fill:#c56691;fill-opacity:1;stroke:none;font-family:Liberation Sans;-inkscape-font-specification:Liberation Sans"
       inkscape:export-filename="/home/dbain/Downloads/alteroo/plaything/playthinglogo.png"
       inkscape:export-xdpi="83.971573"
       inkscape:export-ydpi="83.971573">
      <path
         inkscape:connector-curvature="0"
         id="path3013"
         d="m 238.54303,390.10892 c -4e-5,3.21053 -0.46703,6.12917 -1.40095,8.75593 -0.91455,2.62679 -2.24739,4.87414 -3.99854,6.74207 -1.75122,1.86793 -3.89156,3.30779 -6.42101,4.31959 -2.52952,1.01179 -5.39952,1.51769 -8.61,1.51769 -3.38564,0 -6.35293,-0.52535 -8.90186,-1.57606 -2.54896,-1.07017 -4.66984,-2.54895 -6.36264,-4.43634 -1.69282,-1.90684 -2.96729,-4.16392 -3.82342,-6.77125 -0.85614,-2.60731 -1.28421,-5.45785 -1.28421,-8.55163 0,-3.21048 0.44753,-6.10966 1.34258,-8.69755 0.89505,-2.58783 2.20843,-4.78654 3.94017,-6.59613 1.73172,-1.82898 3.86232,-3.22993 6.39183,-4.20285 2.54893,-0.9923 5.46757,-1.48847 8.75592,-1.48851 3.26886,4e-5 6.16804,0.49621 8.69756,1.48851 2.54891,0.99238 4.67952,2.40305 6.39183,4.23203 1.73168,1.82905 3.04507,4.03749 3.94016,6.62532 0.89501,2.58789 1.34254,5.46762 1.34258,8.63918"
         sodipodi:nodetypes="ccccsccsssccccccc"
         style="fill:#c56691;fill-opacity:1" />
    </g>
    <g
       transform="matrix(0.34576553,0.08508073,-0.08508073,0.34576553,194.70323,265.92036)"
       id="g3787"
       style="font-size:59.77380371px;font-style:normal;font-variant:normal;font-weight:normal;font-stretch:normal;line-height:125%;letter-spacing:0px;word-spacing:0px;opacity:0.52360517;fill:#f49ded;fill-opacity:1;stroke:none;font-family:Liberation Sans;-inkscape-font-specification:Liberation Sans"
       inkscape:export-filename="/home/dbain/Downloads/alteroo/plaything/playthinglogo.png"
       inkscape:export-xdpi="83.971573"
       inkscape:export-ydpi="83.971573">
      <path
         inkscape:connector-curvature="0"
         id="path3789"
         d="m 238.54303,390.10892 c -4e-5,3.21053 -0.46703,6.12917 -1.40095,8.75593 -0.91455,2.62679 -2.24739,4.87414 -3.99854,6.74207 -1.75122,1.86793 -3.89156,3.30779 -6.42101,4.31959 -2.52952,1.01179 -5.39952,1.51769 -8.61,1.51769 -3.38564,0 -6.35293,-0.52535 -8.90186,-1.57606 -2.54896,-1.07017 -4.66984,-2.54895 -6.36264,-4.43634 -1.69282,-1.90684 -2.96729,-4.16392 -3.82342,-6.77125 -0.85614,-2.60731 -1.28421,-5.45785 -1.28421,-8.55163 0,-3.21048 0.44753,-6.10966 1.34258,-8.69755 0.89505,-2.58783 2.20843,-4.78654 3.94017,-6.59613 1.73172,-1.82898 3.86232,-3.22993 6.39183,-4.20285 2.54893,-0.9923 5.46757,-1.48847 8.75592,-1.48851 3.26886,4e-5 6.16804,0.49621 8.69756,1.48851 2.54891,0.99238 4.67952,2.40305 6.39183,4.23203 1.73168,1.82905 3.04507,4.03749 3.94016,6.62532 0.89501,2.58789 1.34254,5.46762 1.34258,8.63918"
         sodipodi:nodetypes="ccccsccsssccccccc"
         style="fill:#f49ded;fill-opacity:1" />
    </g>
    <g
       style="font-size:59.77380371px;font-style:normal;font-variant:normal;font-weight:normal;font-stretch:normal;line-height:125%;letter-spacing:0px;word-spacing:0px;opacity:0.52360517;fill:#28587b;fill-opacity:1;stroke:none;font-family:Liberation Sans;-inkscape-font-specification:Liberation Sans"
       id="g3791"
       transform="matrix(0.25472403,0.06267862,-0.06267862,0.25472403,203.46499,315.92199)"
       inkscape:export-filename="/home/dbain/Downloads/alteroo/plaything/playthinglogo.png"
       inkscape:export-xdpi="83.971573"
       inkscape:export-ydpi="83.971573">
      <path
         style="fill:#28587b;fill-opacity:1"
         sodipodi:nodetypes="ccccsccsssccccccc"
         d="m 238.54303,390.10892 c -4e-5,3.21053 -0.46703,6.12917 -1.40095,8.75593 -0.91455,2.62679 -2.24739,4.87414 -3.99854,6.74207 -1.75122,1.86793 -3.89156,3.30779 -6.42101,4.31959 -2.52952,1.01179 -5.39952,1.51769 -8.61,1.51769 -3.38564,0 -6.35293,-0.52535 -8.90186,-1.57606 -2.54896,-1.07017 -4.66984,-2.54895 -6.36264,-4.43634 -1.69282,-1.90684 -2.96729,-4.16392 -3.82342,-6.77125 -0.85614,-2.60731 -1.28421,-5.45785 -1.28421,-8.55163 0,-3.21048 0.44753,-6.10966 1.34258,-8.69755 0.89505,-2.58783 2.20843,-4.78654 3.94017,-6.59613 1.73172,-1.82898 3.86232,-3.22993 6.39183,-4.20285 2.54893,-0.9923 5.46757,-1.48847 8.75592,-1.48851 3.26886,4e-5 6.16804,0.49621 8.69756,1.48851 2.54891,0.99238 4.67952,2.40305 6.39183,4.23203 1.73168,1.82905 3.04507,4.03749 3.94016,6.62532 0.89501,2.58789 1.34254,5.46762 1.34258,8.63918"
         id="path3793"
         inkscape:connector-curvature="0" />
    </g>
    <rect
       style="fill:#f49ded"
       x="-30.69746"
       y="625.22955"
       width="188"
       height="631"
       id="rect3853" />
    <rect
       style="fill:#c56691"
       x="157.30254"
       y="625.22955"
       width="187"
       height="631"
       id="rect3855" />
    <rect
       style="fill:#c578c6"
       x="344.30255"
       y="625.22955"
       width="186"
       height="631"
       id="rect3857" />
    <rect
       style="fill:#28587b"
       x="530.30255"
       y="625.22955"
       width="187"
       height="631"
       id="rect3859" />
    <rect
       style="fill:#9ca3b7"
       x="717.30255"
       y="625.22955"
       width="188"
       height="631"
       id="rect3861" />
    <g
       style="font-size:51.72014618px;font-style:normal;font-variant:normal;font-weight:normal;font-stretch:normal;text-align:start;line-height:125%;letter-spacing:0px;word-spacing:0px;writing-mode:lr-tb;text-anchor:start;fill:#28587b;fill-opacity:1;stroke:none;font-family:Titan One;-inkscape-font-specification:Titan One"
       id="text3063"
       inkscape:export-filename="/home/dbain/Downloads/alteroo/plaything/playthinglogo.png"
       inkscape:export-xdpi="83.971573"
       inkscape:export-ydpi="83.971573">
      <path
         d="m 123.56586,480.82168 c -2e-5,0.44824 -1.05166,0.81028 -3.15493,1.08612 -2.1033,0.27584 -4.20658,0.41376 -6.30986,0.41376 -2.10329,0 -3.44801,-0.12068 -4.03417,-0.36204 -0.58616,-0.24136 -0.87925,-0.62064 -0.87924,-1.13784 l 0,-33.25605 c -10e-6,-1.65501 4.96512,-2.48253 14.8954,-2.48257 5.99951,4e-5 9.96472,0.4138 11.89563,1.24128 2.34462,0.96548 3.9307,2.27572 4.75826,3.93073 1.10332,2.1378 1.65501,4.87896 1.65504,8.22351 -3e-5,4.58587 -0.79308,7.91319 -2.37913,9.98198 -1.13787,1.51714 -2.27571,2.49982 -3.41353,2.94805 -1.13787,0.44825 -2.08607,0.77582 -2.8446,0.98269 -0.72411,0.17241 -1.63783,0.31033 -2.74117,0.41376 -1.51715,0.13793 -3.58595,0.20689 -6.20642,0.20688 l -1.24128,-0.0517 0,7.86146 m 0.0517,-16.44701 1.24128,0 c 0.6551,2e-5 1.17231,-0.0862 1.55161,-0.2586 0.37926,-0.20686 0.70682,-0.72406 0.98268,-1.5516 0.3103,-0.86198 0.46546,-2.05155 0.46548,-3.56869 -2e-5,-1.55158 -0.17242,-2.7239 -0.5172,-3.51697 -0.31034,-0.8275 -0.6379,-1.31022 -0.98268,-1.44817 -0.31034,-0.17237 -0.68963,-0.25857 -1.13785,-0.2586 l -1.60332,0 0,10.60263"
         style="line-height:125%;fill:#28587b;font-family:Titan One;-inkscape-font-specification:Titan One"
         id="path3072" />
      <path
         d="m 150.09991,482.32156 c -1.72401,0 -2.87909,-0.0862 -3.46525,-0.2586 -0.58616,-0.20688 -0.87925,-0.53444 -0.87924,-0.98268 l 0,-32.16993 c -10e-6,-0.75853 0.99992,-1.49985 2.99977,-2.22397 1.99983,-0.75852 4.24104,-1.1378 6.72361,-1.13784 2.20672,4e-5 3.65488,0.46552 4.3445,1.39644 0.24134,0.34484 0.36202,0.68964 0.36204,1.03441 l 0,22.91202 c 4.20655,-0.27583 7.37871,-0.41375 9.5165,-0.41376 0.72406,1e-5 1.0861,1.15509 1.08613,3.46525 -3e-5,2.27569 -0.15519,4.24106 -0.46548,5.8961 -0.31035,1.65504 -0.72411,2.48256 -1.24129,2.48256 l -18.98129,0"
         style="line-height:125%;fill:#28587b;font-family:Titan One;-inkscape-font-specification:Titan One"
         id="path3074" />
      <path
         d="m 188.21361,479.68384 c -0.069,0.99992 -0.60341,1.68952 -1.60332,2.0688 -0.96546,0.37928 -2.72394,0.56892 -5.27545,0.56892 -2.55154,0 -4.6893,-0.22412 -6.4133,-0.67236 -1.68953,-0.48272 -2.53429,-1.08612 -2.53429,-1.8102 0,-0.82752 1.53436,-6.10297 4.60309,-15.82637 3.06872,-9.75784 4.82721,-15.37809 5.27546,-16.86077 0.17239,-0.4482 1.55159,-0.81024 4.13761,-1.08612 2.62047,-0.31028 5.41335,-0.46544 8.37866,-0.46548 2.99975,4e-5 4.65479,0.51724 4.96514,1.5516 6.5167,21.65352 9.77507,32.65266 9.7751,32.99746 -3e-5,0.3448 -0.20691,0.6896 -0.62064,1.0344 -0.96548,0.75856 -2.87912,1.13784 -5.74093,1.13784 -6.10301,0 -9.22345,-0.72408 -9.36135,-2.17224 l -0.36204,-3.36181 -4.96513,0 -0.25861,2.89633 m 4.13762,-12.72316 -0.77581,-9.30963 -1.13784,0 -0.87924,9.30963 2.79289,0"
         style="line-height:125%;fill:#28587b;font-family:Titan One;-inkscape-font-specification:Titan One"
         id="path3076" />
      <path
         d="m 228.47371,480.82168 c -3e-5,0.44824 -1.05167,0.81028 -3.15493,1.08612 -2.10331,0.27584 -4.20659,0.41376 -6.30986,0.41376 -2.06882,0 -3.41354,-0.10344 -4.03417,-0.31032 -0.62065,-0.24136 -0.93097,-0.63788 -0.93096,-1.18956 l 0,-8.99931 c -6.82707,-13.96441 -10.24059,-21.55002 -10.24059,-22.75686 0,-0.72405 1.15508,-1.48261 3.46525,-2.27569 2.31016,-0.793 4.741,-1.18952 7.29254,-1.18956 3.27559,4e-5 5.01684,0.96548 5.22373,2.89633 l 1.39645,13.91272 0.56892,0 0.98268,-13.55068 c 0.0689,-0.96541 1.29298,-1.74121 3.67213,-2.32741 2.3791,-0.6206 4.63755,-0.93092 6.77534,-0.93096 2.13773,4e-5 3.62038,0.31036 4.44793,0.93096 0.82749,0.62068 1.24125,1.2758 1.24129,1.96537 -4e-5,0.65515 -3.46529,8.43041 -10.39575,23.32578 l 0,8.99931"
         style="line-height:125%;fill:#28587b;font-family:Titan One;-inkscape-font-specification:Titan One"
         id="path3078" />
    </g>
    <text
       xml:space="preserve"
       style="font-size:40px;font-style:normal;font-weight:normal;line-height:125%;letter-spacing:0px;word-spacing:0px;fill:#000000;fill-opacity:1;stroke:none;font-family:Sans"
       x="12.448897"
       y="566.02502"
       id="text3093"
       sodipodi:linespacing="125%"><tspan
         sodipodi:role="line"
         id="tspan3095"
         x="12.448897"
         y="566.02502"
         style="font-size:16px">font used: Titan One</tspan></text>
    <text
       sodipodi:linespacing="125%"
       id="text3097"
       y="593.4126"
       x="21.578093"
       style="font-size:40px;font-style:normal;font-weight:normal;line-height:125%;letter-spacing:0px;word-spacing:0px;fill:#000000;fill-opacity:1;stroke:none;font-family:Sans"
       xml:space="preserve"><tspan
         style="font-size:16px"
         y="593.4126"
         x="21.578093"
         id="tspan3099"
         sodipodi:role="line">palette:</tspan></text>
  </g>
</svg>
